HIERARCHY
ROOT Hips
{
    OFFSET   0.000000   0.000000   0.000000
    CHANNELS 6 Xposition Yposition Zposition Zrotation Xrotation Yrotation
    JOINT Chest
    {
        OFFSET   0.000000   8.007240   0.000000
        CHANNELS 3 Zrotation Xrotation Yrotation
        JOINT Chest2
        {
            OFFSET   0.000000  22.077100   0.000000
            CHANNELS 3 Zrotation Xrotation Yrotation
            JOINT Neck
            {
                OFFSET   0.000000  23.254800   0.000000
                CHANNELS 3 Zrotation Xrotation Yrotation
                JOINT Head
                {
                    OFFSET   0.000000  14.370000   1.956600
                    CHANNELS 3 Zrotation Xrotation Yrotation
                    End Site
                    {
                        OFFSET   0.000000  19.566000   0.000000
                    }
                }
            }
            JOINT LeftCollar
            {
                OFFSET   3.911900  19.017000  -0.467064
                CHANNELS 3 Zrotation Xrotation Yrotation
                JOINT LeftShoulder
                {
                    OFFSET  10.383700   0.000000   0.000000
                    CHANNELS 3 Zrotation Xrotation Yrotation
                    JOINT LeftElbow
                    {
                        OFFSET  26.662100   0.001476   0.000517
                        CHANNELS 3 Zrotation Xrotation Yrotation
                        JOINT LeftWrist
                        {
                            OFFSET  28.869000  -0.000025  -0.000106
                            CHANNELS 3 Zrotation Xrotation Yrotation
                            JOINT LeftFinger0
                            {
                                OFFSET   2.044660  -2.323460   3.252850
                                CHANNELS 3 Zrotation Xrotation Yrotation
                                JOINT LeftFinger01
                                {
                                    OFFSET   3.088130   0.000000   0.000000
                                    CHANNELS 3 Zrotation Xrotation Yrotation
                                    JOINT LeftFinger02
                                    {
                                        OFFSET   2.639460   0.000000   0.000000
                                        CHANNELS 3 Zrotation Xrotation Yrotation
                                        End Site
                                        {
                                            OFFSET   2.582190   0.000000   0.000000
                                        }
                                    }
                                }
                            }
                            JOINT LeftFinger1
                            {
                                OFFSET   8.364480   0.000000   3.252850
                                CHANNELS 3 Zrotation Xrotation Yrotation
                                JOINT LeftFinger11
                                {
                                    OFFSET   4.646930   0.000000   0.000000
                                    CHANNELS 3 Zrotation Xrotation Yrotation
                                    JOINT LeftFinger12
                                    {
                                        OFFSET   2.323460   0.000000   0.000000
                                        CHANNELS 3 Zrotation Xrotation Yrotation
                                        End Site
                                        {
                                            OFFSET   2.273050   0.000000   0.000000
                                        }
                                    }
                                }
                            }
                            JOINT LeftFinger2
                            {
                                OFFSET   8.364490   0.000015   1.078090
                                CHANNELS 3 Zrotation Xrotation Yrotation
                                JOINT LeftFinger21
                                {
                                    OFFSET   5.111620   0.000000   0.000000
                                    CHANNELS 3 Zrotation Xrotation Yrotation
                                    JOINT LeftFinger22
                                    {
                                        OFFSET   2.788160   0.000016   0.000000
                                        CHANNELS 3 Zrotation Xrotation Yrotation
                                        End Site
                                        {
                                            OFFSET   2.727660   0.000000   0.000000
                                        }
                                    }
                                }
                            }
                            JOINT LeftFinger3
                            {
                                OFFSET   7.899780   0.000017  -1.078090
                                CHANNELS 3 Zrotation Xrotation Yrotation
                                JOINT LeftFinger31
                                {
                                    OFFSET   4.646930   0.000000   0.000000
                                    CHANNELS 3 Zrotation Xrotation Yrotation
                                    JOINT LeftFinger32
                                    {
                                        OFFSET   2.323470   0.000000   0.000000
                                        CHANNELS 3 Zrotation Xrotation Yrotation
                                        End Site
                                        {
                                            OFFSET   2.273050   0.000000   0.000000
                                        }
                                    }
                                }
                            }
                            JOINT LeftFinger4
                            {
                                OFFSET   7.435090   0.000000  -3.252850
                                CHANNELS 3 Zrotation Xrotation Yrotation
                                JOINT LeftFinger41
                                {
                                    OFFSET   3.717550   0.000000   0.000000
                                    CHANNELS 3 Zrotation Xrotation Yrotation
                                    JOINT LeftFinger42
                                    {
                                        OFFSET   1.858770   0.000000   0.000000
                                        CHANNELS 3 Zrotation Xrotation Yrotation
                                        End Site
                                        {
                                            OFFSET   1.818440   0.000000   0.000000
                                        }
                                    }
                                }
                            }
                        }
                    }
                }
            }
            JOINT RightCollar
            {
                OFFSET  -3.911900  19.017000  -0.467063
                CHANNELS 3 Zrotation Xrotation Yrotation
                JOINT RightShoulder
                {
                    OFFSET -10.383700   0.000019   0.000000
                    CHANNELS 3 Zrotation Xrotation Yrotation
                    JOINT RightElbow
                    {
                        OFFSET -26.662100   0.001175   0.000102
                        CHANNELS 3 Zrotation Xrotation Yrotation
                        JOINT RightWrist
                        {
                            OFFSET -28.869000   0.000016  -0.000079
                            CHANNELS 3 Zrotation Xrotation Yrotation
                            JOINT RightFinger0
                            {
                                OFFSET  -2.044660  -2.323490   3.252850
                                CHANNELS 3 Zrotation Xrotation Yrotation
                                JOINT RightFinger01
                                {
                                    OFFSET  -3.088140   0.000000   0.000000
                                    CHANNELS 3 Zrotation Xrotation Yrotation
                                    JOINT RightFinger02
                                    {
                                        OFFSET  -2.639460   0.000000   0.000000
                                        CHANNELS 3 Zrotation Xrotation Yrotation
                                        End Site
                                        {
                                            OFFSET  -2.582190   0.000000   0.000000
                                        }
                                    }
                                }
                            }
                            JOINT RightFinger1
                            {
                                OFFSET  -8.364480   0.000000   3.252850
                                CHANNELS 3 Zrotation Xrotation Yrotation
                                JOINT RightFinger11
                                {
                                    OFFSET  -4.646930   0.000000   0.000000
                                    CHANNELS 3 Zrotation Xrotation Yrotation
                                    JOINT RightFinger12
                                    {
                                        OFFSET  -2.323470   0.000000   0.000000
                                        CHANNELS 3 Zrotation Xrotation Yrotation
                                        End Site
                                        {
                                            OFFSET  -2.273050   0.000000   0.000000
                                        }
                                    }
                                }
                            }
                            JOINT RightFinger2
                            {
                                OFFSET  -8.364480   0.000000   1.078090
                                CHANNELS 3 Zrotation Xrotation Yrotation
                                JOINT RightFinger21
                                {
                                    OFFSET  -5.111620   0.000000   0.000000
                                    CHANNELS 3 Zrotation Xrotation Yrotation
                                    JOINT RightFinger22
                                    {
                                        OFFSET  -2.788160   0.000000   0.000000
                                        CHANNELS 3 Zrotation Xrotation Yrotation
                                        End Site
                                        {
                                            OFFSET  -2.727660   0.000000   0.000000
                                        }
                                    }
                                }
                            }
                            JOINT RightFinger3
                            {
                                OFFSET  -7.899780   0.000000  -1.078090
                                CHANNELS 3 Zrotation Xrotation Yrotation
                                JOINT RightFinger31
                                {
                                    OFFSET  -4.646930   0.000000   0.000000
                                    CHANNELS 3 Zrotation Xrotation Yrotation
                                    JOINT RightFinger32
                                    {
                                        OFFSET  -2.323470   0.000000   0.000000
                                        CHANNELS 3 Zrotation Xrotation Yrotation
                                        End Site
                                        {
                                            OFFSET  -2.273050   0.000000   0.000000
                                        }
                                    }
                                }
                            }
                            JOINT RightFinger4
                            {
                                OFFSET  -7.435090   0.000000  -3.252850
                                CHANNELS 3 Zrotation Xrotation Yrotation
                                JOINT RightFinger41
                                {
                                    OFFSET  -3.717550   0.000000   0.000000
                                    CHANNELS 3 Zrotation Xrotation Yrotation
                                    JOINT RightFinger42
                                    {
                                        OFFSET  -1.858770   0.000000   0.000000
                                        CHANNELS 3 Zrotation Xrotation Yrotation
                                        End Site
                                        {
                                            OFFSET  -1.818440   0.000000   0.000000
                                        }
                                    }
                                }
                            }
                        }
                    }
                }
            }
        }
    }
    JOINT LeftHip
    {
        OFFSET   9.783040   0.000000   0.000000
        CHANNELS 3 Zrotation Xrotation Yrotation
        JOINT LeftKnee
        {
            OFFSET   0.000032 -41.789100  -0.002222
            CHANNELS 3 Zrotation Xrotation Yrotation
            JOINT LeftAnkle
            {
                OFFSET   0.000087 -41.133200  -0.000135
                CHANNELS 3 Zrotation Xrotation Yrotation
                JOINT LeftToe
                {
                    OFFSET   0.000000  -6.358960  14.674500
                    CHANNELS 3 Zrotation Xrotation Yrotation
                    End Site
                    {
                        OFFSET   0.000000   0.000000   3.913200
                    }
                }
            }
        }
    }
    JOINT RightHip
    {
        OFFSET  -9.783040   0.000000   0.000000
        CHANNELS 3 Zrotation Xrotation Yrotation
        JOINT RightKnee
        {
            OFFSET   0.000047 -41.789100  -0.000896
            CHANNELS 3 Zrotation Xrotation Yrotation
            JOINT RightAnkle
            {
                OFFSET  -0.000117 -41.133300  -0.000248
                CHANNELS 3 Zrotation Xrotation Yrotation
                JOINT RightToe
                {
                    OFFSET   0.000000  -6.358970  14.674500
                    CHANNELS 3 Zrotation Xrotation Yrotation
                    End Site
                    {
                        OFFSET   0.000000   0.000000   3.913200
                    }
                }
            }
        }
    }
}
MOTION
Frames: 4
Frame Time:   0.016667
 -0.155450  89.522500   0.843971  -2.434420  -4.781620  -0.154386   0.134546   3.026720  -0.047857   0.272222   6.053340  -0.103061   0.959964   0.256228   0.001819   1.587360   0.515553   1.292550  -3.341910  -0.140246  -0.327932 -74.642400   7.256370  -0.533997  -0.896924  -2.129310 -13.482600  11.686000  -2.780430  -3.428640  41.827100  28.750400 -57.328700 -24.160400   0.001868   0.001503  -7.080220   0.002424   0.000124 -25.467300   2.673000  -5.583020 -20.943700  -0.000610   0.005202 -14.660600   0.003855   0.006472 -27.632900  -0.280881   0.531411 -29.899800  -0.000571   0.005274 -19.913300  -0.005777   0.002898 -26.534000  -0.270435   0.536665 -26.535300   0.000000   0.007540 -17.657600  -0.001201   0.005184 -25.544100  -0.261213   0.541146 -38.338900   0.001315   0.000855 -25.519800   0.000397   0.000887  10.001300   1.980830   3.410280  70.365100   1.871050  -8.323120   1.065190  -8.191200   7.963190 -11.087300  -4.877480   2.674110 -40.164100  19.641200  55.957000   7.848000   0.006904  -0.004731  -1.076020   0.000966   0.004330  25.425000   3.616120   7.557760  20.997800   0.001330  -0.002661  14.698400   0.000319  -0.002829  27.757900   3.794840   7.168970  31.940100  -0.000154  -0.005777  21.263700  -0.004774  -0.002922  25.879300   2.227010   4.578230  25.966800   0.000952  -0.002128  17.305500  -0.003318  -0.000343  28.451000   1.498010   2.745110  42.730500  -0.005024  -0.001865  28.458500  -0.011449  -0.010942   2.152930   7.222740   1.749120   0.433155  -0.000719  12.322500  -0.912947  -2.994210   2.347400  -0.000000   0.000000  -0.000000   1.824610   7.487710  -4.650310   0.309593   0.451897 -16.903200   0.730532  -3.138870   1.738030   0.000000   0.000000  -0.000000
 -0.155447  89.522500   0.837255  -2.433820  -4.788420  -0.149052   0.134319   3.033440  -0.044865   0.271515   6.066770  -0.097075   0.960010   0.255188   0.001822   1.585080   0.514977   1.292980  -3.342010  -0.144923  -0.327934 -74.642400   7.279210  -0.544596  -0.900930  -2.143780 -13.495400  11.686000  -2.780430  -3.428650  41.831900  28.747800 -57.321300 -24.149100   0.001869   0.001507  -7.074550   0.002425   0.000137 -25.458500   2.672350  -5.586340 -20.936400  -0.000611   0.005197 -14.655500   0.003855   0.006472 -27.632900  -0.280881   0.532052 -29.887200  -0.000572   0.005272 -19.904900  -0.005779   0.002896 -26.528700  -0.270433   0.537317 -26.530000   0.000000   0.007538 -17.657500  -0.001189   0.005184 -25.544000  -0.261213   0.541800 -38.334400   0.001319   0.000848 -25.519600   0.000402   0.000882  10.001800   1.972870   3.410270  70.382500   1.907540  -8.301320   1.075940  -8.197550   7.969730 -11.082000  -4.847370   2.689830 -40.151800  19.629100  55.961700   7.825510   0.006901  -0.004731  -1.087260   0.000960   0.004331  25.412500   3.627000   7.584420  20.988900   0.001322  -0.002657  14.692200   0.000320  -0.002819  27.754900   3.808630   7.195110  31.943200  -0.000151  -0.005773  21.269900  -0.004773  -0.002920  25.882300   2.236370   4.597500  25.971400   0.000953  -0.002125  17.306100  -0.003319  -0.000342  28.451100   1.498000   2.744870  42.730700  -0.005025  -0.001860  28.458600  -0.011448  -0.010938   2.153250   7.207130   1.749060   0.434293   0.034620  12.317400  -0.917570  -3.004590   2.347370  -0.000000   0.000000  -0.000000   1.822460   7.464300  -4.650100   0.309280   0.502302 -16.910200   0.738753  -3.164600   1.738620  -0.000000   0.000000  -0.000000
 -0.155424  89.522400   0.826192  -2.432900  -4.800380  -0.139723   0.133539   3.045290  -0.039719   0.269771   6.090480  -0.086742   0.960056   0.251976   0.001827   1.581410   0.510943   1.296020  -3.342220  -0.154558  -0.327937 -74.644400   7.314810  -0.562760  -0.907104  -2.165790 -13.517000  11.686000  -2.780420  -3.428650  41.841400  28.748000 -57.309600 -24.137800   0.001874   0.001510  -7.068880   0.002427   0.000156 -25.445600   2.669060  -5.589650 -20.925800  -0.000615   0.005180 -14.648000   0.003856   0.006469 -27.632800  -0.280885   0.536540 -29.872600  -0.000574   0.005266 -19.895200  -0.005782   0.002890 -26.521100  -0.270431   0.541885 -26.522400   0.000000   0.007536 -17.657300  -0.001177   0.005183 -25.543800  -0.261215   0.546384 -38.327800   0.001331   0.000828 -25.519500   0.000415   0.000871  10.002600   1.958950   3.410260  70.410700   1.971030  -8.259910   1.092520  -8.206680   7.978650 -11.064300  -4.799490   2.716220 -40.133900  19.611800  55.966800   7.803020   0.006894  -0.004731  -1.098490   0.000949   0.004331  25.400100   3.637870   7.611080  20.980000   0.001301  -0.002648  14.686000   0.000322  -0.002792  27.751900   3.822410   7.221250  31.946200  -0.000146  -0.005764  21.276200  -0.004772  -0.002914  25.885400   2.245730   4.616760  25.975900   0.000955  -0.002115  17.306600  -0.003320  -0.000339  28.451900   1.497980   2.744630  42.731800  -0.005027  -0.001851  28.459400  -0.011445  -0.010926   2.153580   7.191510   1.749030   0.435441   0.069961  12.309500  -0.922212  -3.014960   2.346990  -0.000000   0.000000  -0.000000   1.820310   7.440900  -4.649880   0.309018   0.552691 -16.921200   0.746974  -3.190340   1.739220   0.000000   0.000000   0.000000
 -0.155365  89.522400   0.817721  -2.433370  -4.811060  -0.131297   0.131283   3.055830  -0.035108   0.265102   6.111580  -0.077397   0.959795   0.246493   0.001829   1.578730   0.500222   1.306490  -3.342450  -0.165683  -0.320181 -74.652500   7.335310  -0.578477  -0.906137  -2.177550 -13.535700  11.693300  -2.786880  -3.424980  41.847400  28.757600 -57.296100 -24.138200   0.001891   0.001506  -7.069100   0.002426   0.000162 -25.438400   2.661010  -5.577300 -20.919500  -0.000628   0.005145 -14.643600   0.003856   0.006461 -27.632600  -0.287909   0.551896 -29.870300  -0.000572   0.005254 -19.893600  -0.005787   0.002881 -26.516900  -0.277160   0.557429 -26.518200   0.000034   0.007535 -17.657700  -0.001187   0.005170 -25.544200  -0.267731   0.562039 -38.324000   0.001348   0.000793 -25.520000   0.000437   0.000857  10.005200   1.946900   3.412970  70.431500   2.027980  -8.217650   1.102380  -8.210780   7.981610 -11.028300  -4.770100   2.743210 -40.126000  19.602700  55.964200   7.818590   0.006889  -0.004721  -1.090710   0.000940   0.004323  25.407200   3.626410   7.584930  20.984500   0.001269  -0.002636  14.689100   0.000327  -0.002747  27.752700   3.803020   7.184840  31.938900  -0.000141  -0.005752  21.271300  -0.004769  -0.002904  25.885200   2.232000   4.589130  25.974600   0.000963  -0.002099  17.302800  -0.003323  -0.000333  28.455100   1.497960   2.745940  42.736600  -0.005030  -0.001839  28.462600  -0.011440  -0.010906   2.156630   7.205570   1.749210   0.436918   0.047208  12.304300  -0.921078  -3.000940   2.343210   0.000000   0.000000   0.000000   1.822440   7.454870  -4.648770   0.307886   0.531636 -16.928500   0.742921  -3.177790   1.739110   0.000000   0.000000  -0.000000
